<svg height="512pt" viewBox="-86 0 512 512.00002" width="512pt" xmlns="http://www.w3.org/2000/svg"><path d="m187.410156 471.863281h121.007813v40.136719h-121.007813zm0 0" fill="#94deb8"/><path d="m187.410156 471.863281h121.007813v19.246094h-121.007813zm0 0" fill="#5ed398"/><path d="m232.050781 471.863281v30.269531c0 5.449219-4.417969 9.867188-9.871093 9.867188h-191.066407v-40.136719zm0 0" fill="#e2e0e2"/><path d="m31.113281 471.863281h200.9375v19.246094h-200.9375zm0 0" fill="#ccc6cc"/><path d="m46.578125 471.867188v30.265624c0 5.445313-4.421875 9.867188-9.867187 9.867188h-11.191407c-5.445312 0-9.867187-4.421875-9.867187-9.867188v-30.265624zm0 0" fill="#7a6e79"/><path d="m323.878906 471.867188v30.265624c0 5.445313-4.421875 9.867188-9.867187 9.867188h-11.191407c-5.449218 0-9.867187-4.421875-9.867187-9.867188v-30.265624zm0 0" fill="#7a6e79"/><path d="m329.660156 475.648438h-319.792968c-5.449219 0-9.867188-4.417969-9.867188-9.867188v-455.914062c0-5.449219 4.417969-9.867188 9.867188-9.867188h319.792968c5.449219 0 9.867188 4.417969 9.867188 9.867188v455.914062c.003906 5.449219-4.414063 9.867188-9.867188 9.867188zm0 0" fill="#a79da8"/><path d="m321.570312 246.328125v.113281c0 4.261719-3.460937 7.722656-7.722656 7.722656-4.277344 0-7.726562-3.460937-7.726562-7.722656v-.113281c0-4.265625 3.449218-7.726563 7.726562-7.726563 4.261719 0 7.722656 3.460938 7.722656 7.726563zm0 0" fill="#928392"/><path d="m321.570312 93.363281v.113281c0 4.277344-3.460937 7.726563-7.722656 7.726563-4.277344 0-7.726562-3.449219-7.726562-7.726563v-.113281c0-4.261719 3.449218-7.722656 7.726562-7.722656 4.261719 0 7.722656 3.460937 7.722656 7.722656zm0 0" fill="#928392"/><path d="m321.734375 170.226562c0 83.933594-68.039063 151.972657-151.96875 151.972657-83.933594 0-151.972656-68.039063-151.972656-151.972657 0-83.929687 68.039062-151.96875 151.972656-151.96875 83.929687 0 151.96875 68.039063 151.96875 151.96875zm0 0" fill="#928392"/><path d="m339.527344 9.867188v455.917968c0 5.441406-4.417969 9.871094-9.867188 9.871094h-25.683594c5.441407 0 9.871094-4.429688 9.871094-9.871094v-455.917968c0-5.449219-4.429687-9.867188-9.871094-9.867188h25.683594c5.449219 0 9.867188 4.421875 9.867188 9.867188zm0 0" fill="#928392"/><path d="m321.570312 93.363281v.113281c0 4.277344-3.460937 7.726563-7.722656 7.726563v-15.5625c4.261719 0 7.722656 3.460937 7.722656 7.722656zm0 0" fill="#7a6e79"/><path d="m321.570312 246.328125v.113281c0 4.261719-3.460937 7.722656-7.722656 7.722656v-15.5625c4.261719 0 7.722656 3.460938 7.722656 7.726563zm0 0" fill="#7a6e79"/><path d="m218.78125 335.304688c0 20.890624-16.9375 37.828124-37.828125 37.828124s-37.828125-16.9375-37.828125-37.828124c0-5.308594 1.09375-10.355469 3.070312-14.929688 5.777344-13.472656 19.171876-22.898438 34.757813-22.898438 13.761719 0 25.816406 7.351563 32.429687 18.347657 3.429688 5.683593 5.398438 12.351562 5.398438 19.480469zm0 0" fill="#ffe8ca"/><path d="m213.382812 315.824219c-13.816406 4.152343-28.464843 6.375-43.617187 6.375-8.015625 0-15.886719-.628907-23.570313-1.820313 5.777344-13.476562 19.171876-22.902344 34.757813-22.902344 13.761719 0 25.816406 7.355469 32.429687 18.347657zm0 0" fill="#ffc783"/><path d="m218.78125 335.304688c0 20.890624-16.945312 37.824218-37.835938 37.824218-2.96875 0-5.859374-.34375-8.632812-.988281 16.726562-3.90625 29.199219-18.917969 29.199219-36.835937 0-17.921876-12.472657-32.933594-29.199219-36.839844 2.773438-.640625 5.664062-.984375 8.632812-.984375 20.890626 0 37.835938 16.933593 37.835938 37.824219zm0 0" fill="#ffc783"/><path d="m20.582031 66.941406h-20.582031v-33.554687h20.582031c9.265625 0 16.773438 7.511719 16.773438 16.777343 0 9.265626-7.507813 16.777344-16.773438 16.777344zm0 0" fill="#e2e0e2"/><path d="m318.949219 33.386719h20.582031v33.554687h-20.582031c-9.265625 0-16.777344-7.511718-16.777344-16.777344 0-9.265624 7.511719-16.777343 16.777344-16.777343zm0 0" fill="#e2e0e2"/><path d="m339.527344 33.386719v33.554687h-20.582032c-1.769531 0-3.492187-.277344-5.097656-.792968v-31.96875c1.605469-.515626 3.328125-.792969 5.097656-.792969zm0 0" fill="#ccc6cc"/><path d="m20.582031 303.449219h-20.582031v-33.550781h20.582031c9.265625 0 16.773438 7.507812 16.773438 16.773437s-7.507813 16.777344-16.773438 16.777344zm0 0" fill="#e2e0e2"/><path d="m318.949219 269.898438h20.582031v33.550781h-20.582031c-9.265625 0-16.777344-7.511719-16.777344-16.777344s7.511719-16.773437 16.777344-16.773437zm0 0" fill="#e2e0e2"/><path d="m339.527344 269.898438v33.550781h-20.582032c-1.769531 0-3.492187-.277344-5.097656-.792969v-31.964844c1.605469-.515625 3.328125-.792968 5.097656-.792968zm0 0" fill="#ccc6cc"/><path d="m306.933594 170.226562c0 75.757813-61.414063 137.171876-137.167969 137.171876-75.757813 0-137.167969-61.414063-137.167969-137.171876 0-75.753906 61.410156-137.167968 137.167969-137.167968 75.753906 0 137.167969 61.414062 137.167969 137.167968zm0 0" fill="#caf1fd"/><path d="m306.933594 170.226562c0 75.761719-61.410156 137.171876-137.167969 137.171876-4.492187 0-8.941406-.21875-13.324219-.640626 69.511719-6.703124 123.847656-65.261718 123.847656-136.527343 0-71.269531-54.335937-129.828125-123.847656-136.53125 4.382813-.421875 8.832032-.640625 13.324219-.640625 75.757813 0 137.167969 61.410156 137.167969 137.167968zm0 0" fill="#9de7fc"/><path d="m228.96875 170.226562c0 32.695313-26.507812 59.203126-59.203125 59.203126s-59.203125-26.507813-59.203125-59.203126c0-32.695312 26.507812-59.203124 59.203125-59.203124s59.203125 26.507812 59.203125 59.203124zm0 0" fill="#9de7fc"/><path d="m213.515625 170.226562c0 24.164063-19.589844 43.75-43.75 43.75-24.164063 0-43.75-19.585937-43.75-43.75 0-24.160156 19.585937-43.746093 43.75-43.746093 24.160156 0 43.75 19.585937 43.75 43.746093zm0 0" fill="#00c2f8"/><g fill="#e2e0e2"><path d="m154.46875 178.066406c-4.269531 0-7.726562-3.457031-7.726562-7.726562v-.113282c0-4.265624 3.460937-7.726562 7.726562-7.726562s7.726562 3.460938 7.726562 7.726562v.113282c0 4.269531-3.457031 7.726562-7.726562 7.726562zm0 0"/><path d="m185.0625 178.066406c-4.269531 0-7.726562-3.457031-7.726562-7.726562v-.113282c0-4.265624 3.457031-7.726562 7.726562-7.726562 4.265625 0 7.722656 3.460938 7.722656 7.726562v.113282c0 4.269531-3.457031 7.726562-7.722656 7.726562zm0 0"/><path d="m169.765625 163.710938c-4.269531 0-7.726563-3.457032-7.726563-7.726563v-.113281c0-4.265625 3.457032-7.726563 7.726563-7.726563 4.265625 0 7.726563 3.460938 7.726563 7.726563v.113281c0 4.269531-3.460938 7.726563-7.726563 7.726563zm0 0"/><path d="m169.765625 192.425781c-4.269531 0-7.726563-3.460937-7.726563-7.726562v-.113281c0-4.269532 3.457032-7.726563 7.726563-7.726563 4.265625 0 7.726563 3.457031 7.726563 7.726563v.113281c0 4.265625-3.460938 7.726562-7.726563 7.726562zm0 0"/><path d="m29.636719 340.074219v83.203125c0 12.964844 10.507812 23.472656 23.46875 23.472656h130.359375c5.449218 0 9.871094-4.417969 9.871094-9.867188v-23.109374c0-5.453126-4.421876-9.871094-9.871094-9.871094h-3.714844c-17.398438 0-34.082031-6.910156-46.386719-19.210938-12.300781-12.300781-19.210937-28.988281-19.210937-46.382812v-3.023438c0-2.53125-1.546875-4.800781-3.898438-5.742187-6.703125-2.679688-20.78125-8.765625-32.128906-16.769531-1.894531-1.335938-4.367188-1.527344-6.429688-.460938l-36.726562 19c-3.277344 1.695312-5.332031 5.074219-5.332031 8.761719zm0 0"/></g><path d="m58.253906 357.671875c-4.269531 0-7.726562-3.460937-7.726562-7.726563v-.117187c0-4.265625 3.460937-7.722656 7.726562-7.722656s7.726563 3.457031 7.726563 7.722656v.117187c0 4.265626-3.457031 7.726563-7.726563 7.726563zm0 0" fill="#a79da8"/><path d="m58.253906 427.378906c-4.269531 0-7.726562-3.457031-7.726562-7.726562v-.113282c0-4.265624 3.460937-7.726562 7.726562-7.726562s7.726563 3.460938 7.726563 7.726562v.113282c0 4.269531-3.457031 7.726562-7.726563 7.726562zm0 0" fill="#a79da8"/><path d="m135.519531 427.378906c-4.269531 0-7.726562-3.457031-7.726562-7.726562v-.113282c0-4.265624 3.457031-7.726562 7.726562-7.726562 4.265625 0 7.722657 3.460938 7.722657 7.726562v.113282c0 4.269531-3.457032 7.726562-7.722657 7.726562zm0 0" fill="#a79da8"/><path d="m308.417969 348.539062v88.339844c0 5.449219-4.421875 9.867188-9.871094 9.867188h-66.28125c-5.449219 0-9.867187-4.417969-9.867187-9.867188v-48.5625c0-5.449218 4.417968-9.871094 9.867187-9.871094h43.753906v-29.90625c0-4.46875 1.8125-8.519531 4.738281-11.441406 2.933594-2.9375 6.984376-4.75 11.457032-4.75 8.949218 0 16.203125 7.25 16.203125 16.191406zm0 0" fill="#ffad5c"/><path d="m308.414062 348.546875v88.332031c0 5.457032-4.421874 9.867188-9.867187 9.867188h-18.425781c5.449218 0 9.867187-4.410156 9.867187-9.867188v-88.332031c0-5.527344-2.761719-10.402344-6.984375-13.320313 2.613282-1.816406 5.78125-2.882812 9.207032-2.882812 8.949218 0 16.203124 7.253906 16.203124 16.203125zm0 0" fill="#ff9b24"/><path d="m25.6875 254.167969c-4.265625 0-7.722656-3.457031-7.722656-7.726563v-.113281c0-4.265625 3.457031-7.726563 7.722656-7.726563 4.269531 0 7.726562 3.460938 7.726562 7.726563v.113281c0 4.269532-3.457031 7.726563-7.726562 7.726563zm0 0" fill="#928392"/><path d="m25.6875 101.210938c-4.265625 0-7.722656-3.460938-7.722656-7.726563v-.117187c0-4.265626 3.457031-7.722657 7.722656-7.722657 4.269531 0 7.726562 3.457031 7.726562 7.722657v.117187c0 4.265625-3.457031 7.726563-7.726562 7.726563zm0 0" fill="#928392"/><path d="m270.25 424.824219v21.921875h-15.453125v-18.726563l-8.304687-8.292969h-24.09375v-15.453124h27.296874c2.050782 0 4.019532.816406 5.460938 2.265624l12.828125 12.816407c1.449219 1.453125 2.265625 3.421875 2.265625 5.46875zm0 0" fill="#ff9b24"/><path d="m186.683594 343.03125h-11.460938c-4.269531 0-7.726562-3.460938-7.726562-7.726562 0-4.269532 3.457031-7.726563 7.726562-7.726563h11.460938c4.269531 0 7.726562 3.457031 7.726562 7.726563 0 4.265624-3.457031 7.726562-7.726562 7.726562zm0 0" fill="#ffad5c"/></svg>