<svg id="Capa_1" enable-background="new 0 0 502.309 502.309" height="512" viewBox="0 0 502.309 502.309" width="512" xmlns="http://www.w3.org/2000/svg"><circle cx="251.154" cy="256.309" fill="#fec753" r="245"/><path d="m231.177 464.309v37.202c6.53.522 13.129.798 19.794.798 7.954 0 15.816-.393 23.576-1.134v-36.866z" fill="#35528c"/><path d="m286.72 410.309h-70v43.195c0 8.837 7.144 16.011 15.981 16.042 11.378.04 26.608.051 37.996.041 8.854-.008 16.023-7.188 16.023-16.042z" fill="#0c1f35"/><path d="m341.495 192.359h-179.549v-176.399c0-8.814 7.145-15.96 15.96-15.96h147.629c8.814 0 15.96 7.145 15.96 15.96z" fill="#83c5ed"/><path d="m238.157 0h-60.251c-8.814 0-15.96 7.145-15.96 15.96v176.4h60.251v-176.4c0-8.815 7.145-15.96 15.96-15.96z" fill="#5bb3ce"/><path d="m352.919 164.167h-202.397c-10.936 0-19.801 8.865-19.801 19.801v214.867c0 10.898 8.799 19.747 19.697 19.801 45.419.227 157.072.254 202.548.164 10.921-.022 19.755-8.881 19.755-19.801v-215.031c-.001-10.936-8.866-19.801-19.802-19.801z" fill="#35528c"/><path d="m190.72 398.977v-214.867c0-10.936 8.865-19.801 19.801-19.801h144.68c-.75-.086-1.51-.142-2.283-.142h-202.396c-10.936 0-19.801 8.865-19.801 19.801v214.867c0 10.898 8.799 19.747 19.697 19.801 15.762.079 39.503.133 65.684.168-1.988-.008-3.893-.017-5.684-.026-10.899-.054-19.698-8.903-19.698-19.801z" fill="#1f3a60"/><path d="m218.803 101.089h-19.451c-4.132 0-7.481-3.349-7.481-7.481v-26.932c0-4.132 3.349-7.481 7.481-7.481h19.451c4.132 0 7.481 3.349 7.481 7.481v26.932c0 4.132-3.349 7.481-7.481 7.481z" fill="#35528c"/><path d="m302.592 101.089h-19.451c-4.132 0-7.481-3.349-7.481-7.481v-26.932c0-4.132 3.349-7.481 7.481-7.481h19.451c4.132 0 7.481 3.349 7.481 7.481v26.932c.001 4.132-3.349 7.481-7.481 7.481z" fill="#35528c"/><path d="m280.938 242.309h-14.559c-1.409 0-2.551 1.142-2.551 2.551v14.559c0 1.409 1.142 2.551 2.551 2.551h2.279v7.152c0 8.164-4.88 15.399-12.438 18.465v-52.618h4.401c2.266 0 3.682-2.453 2.549-4.416l-9.901-17.149c-1.133-1.963-3.966-1.963-5.099 0l-9.901 17.149c-1.133 1.963.283 4.416 2.549 4.416h5.401v71.591l-.91-.364c-7.611-3.044-12.529-10.308-12.529-18.505v-5.718c4.619-1.616 7.938-6.002 7.938-11.173 0-6.542-5.304-11.846-11.846-11.846s-11.846 5.304-11.846 11.846c0 4.311 2.311 8.073 5.754 10.146v6.745c0 12.31 7.385 23.218 18.815 27.79l4.624 1.849v7.762c-8.368 2.391-14.5 10.08-14.5 19.216 0 11.046 8.954 20 20 20s20-8.954 20-20c0-9.496-6.625-17.429-15.5-19.473v-26.474l3.624-1.45c11.429-4.572 18.814-15.48 18.814-27.79v-7.152h2.279c1.409 0 2.551-1.142 2.551-2.551v-14.558c.003-1.409-1.14-2.551-2.549-2.551z" fill="#83c5ed"/></svg>